<?xml version="1.0" encoding="UTF-8"?>
<svg id="Calque_1" data-name="Calque 1" xmlns="http://www.w3.org/2000/svg" version="1.1" viewBox="0 0 1200 1200">
  <defs>
    <style>
      .cls-1 {
        fill: #000;
        stroke-width: 0px;
      }
    </style>
  </defs>
  <path class="cls-1" d="M426.53,894.13c0,16.37.37,31.41-.09,46.43-.55,17.84-9,26.82-26.86,27.26-26.06.64-52.17.67-78.23,0-19.1-.49-26.7-9.75-26.72-30.67-.07-105.45-.03-210.91-.03-316.36,0-6.25,0-12.51,0-20.71-7.57,0-13.74.08-19.91-.01-27.47-.4-43.87-15-44.77-42.26-1-30.1-.66-60.26-.1-90.38.33-17.99,7.58-24.18,26.27-24.52,12.02-.22,24.04-.04,38.1-.04,0-8.16,0-14.35,0-20.54,0-48.67-.01-97.34,0-146.01.01-35.48,8.7-44.29,43.9-44.3,175.03-.02,350.06-.01,525.09-.01,2.32,0,4.64-.04,6.95.02,26.18.64,36.97,11.27,37.05,37.22.15,50.99.05,101.98.05,152.96,0,6.22,0,12.44,0,20.67,14.52,0,27.12.23,39.7-.06,15.8-.37,24.27,7.61,24.52,22.82.52,31.28,1.05,62.61-.23,93.84-1.08,26.26-17.63,40.2-44.49,40.58-5.73.08-11.45.01-19.51.01,0,7.27,0,13.43,0,19.58,0,104.87.02,209.75-.02,314.62-.01,26.62-7.12,33.63-34.06,33.74-22.6.09-45.21.28-67.81-.06-21.97-.33-30.1-8.78-30.39-30.91-.19-13.86-.03-27.73-.03-42.91h-348.36ZM599.52,619.91c79.35,0,158.69.13,238.04-.07,27.46-.07,37.88-10.74,37.9-37.92.07-78.17.07-156.33,0-234.5-.02-27.6-10.21-38.43-37.32-38.46-158.11-.15-316.22-.14-474.34-.01-27.48.02-37.87,10.66-37.89,37.88-.07,77.01-.04,154.01-.02,231.02,0,32.93,9.15,42.02,42.54,42.04,77.03.05,154.06.02,231.09.01ZM600.8,781.01c-24.92,0-49.84.12-74.75-.05-14.41-.1-21.38,6.99-21.63,21.13-.1,5.79-.11,11.59-.03,17.38.28,21.61,4.92,26.36,26.8,26.43,41.72.14,83.44.04,125.17.04,40.12,0,42.08-2.29,41.03-42.13-.42-15.98-7.59-23.15-23.56-22.9-24.33.38-48.67.1-73.01.11ZM821.72,742.62c-28.78.26-51.18,23.54-50.67,52.67.49,27.76,24.05,50.72,51.58,50.27,28.76-.47,51.45-24.1,50.83-52.94-.6-27.85-23.78-50.25-51.75-50ZM430.4,793.16c-.24-28.14-22.77-50.47-50.98-50.54-28.78-.07-51.69,23.23-51.25,52.11.44,28.28,23.23,51.03,50.99,50.88,28.62-.15,51.48-23.55,51.24-52.45Z"/>
</svg>