<?xml version="1.0" encoding="UTF-8"?>
<svg id="Calque_1" data-name="Calque 1" xmlns="http://www.w3.org/2000/svg" version="1.1" viewBox="0 0 1200 1200">
  <defs>
    <style>
      .cls-1 {
        fill: #000;
        stroke-width: 0px;
      }
    </style>
  </defs>
  <path class="cls-1" d="M600.76,790.76c-116.94,0-233.87,0-350.81,0-16.75,0-19.97-3.27-19.98-20.34,0-114.26,0-228.53,0-342.79,0-17.07,3.21-20.32,19.99-20.32,234.16,0,468.32,0,702.48,0,16.18,0,19.55,3.42,19.55,19.9,0,114.55,0,229.1,0,343.66,0,16.47-3.39,19.9-19.56,19.9-117.22,0-234.45,0-351.67,0ZM600.41,509.4c91.54,0,183.07,0,274.61,0,3.16,0,7.16,1.05,9.31-.45,4.05-2.84,8.7-6.67,10.07-11.04,1.91-6.06-2.06-11.11-8.44-12.95-2.98-.86-6.25-.95-9.39-.95-183.65-.04-367.3-.04-550.94,0-3.42,0-7.01.12-10.22,1.13-5.92,1.87-9.72,6.83-7.9,12.5,1.42,4.42,5.85,8.35,9.84,11.27,2.1,1.53,6.14.49,9.3.49,91.25.01,182.5.01,273.74.01ZM600.06,573.3c91.54,0,183.07,0,274.61,0,3.16,0,6.39.27,9.48-.23,6.46-1.06,10.27-5.06,10.62-11.66.35-6.58-2.86-11.08-9.3-12.69-3.02-.76-6.27-.82-9.41-.82-183.36-.04-366.72-.03-550.08,0-2.86,0-5.79.02-8.58.59-6.88,1.39-10.55,5.81-10.21,12.83.34,6.99,4.4,11.03,11.35,11.84,2.84.33,5.75.15,8.63.15,90.96,0,181.92,0,272.88,0ZM747.78,718.81c20.83,17.9,42.08,16.02,63.51,3.1,4.38-2.64,7.09-2.49,11.27.63,28.63,21.4,56.09,10.5,75.09-13.84,4.46-5.72,3.56-12.18-2.08-16.97-5.31-4.51-11.1-4.06-16.51.28-1.11.89-2.02,2.04-3,3.09-16.8,17.84-29.91,17.82-46.42-.07-6.92-7.5-12.39-7.88-21.13-2.2-6.7,4.36-13.45,8.87-20.74,12.02-6.73,2.91-13.92,2.43-20.31-3.36,3.32-3.63,6.74-6.74,9.38-10.42,4.66-6.5,9.74-12.94,12.99-20.15,4.69-10.38,1.97-20.25-5.62-26.66-16.51-13.96-41.85-8.45-49.79,11.57-2.76,6.96-5.4,16.1-3.15,22.52,6.32,18.06-4.07,26.01-16.58,33.81-1.22.76-2.36,1.65-3.51,2.51-8.3,6.18-10.13,13.2-5.15,19.74,4.63,6.08,12.15,6.57,19.87.96,7.19-5.23,14.19-10.72,21.89-16.57ZM453.68,637.19c42.59,0,85.18,0,127.78,0,13.35,0,19.55-4.09,19.4-12.78-.15-8.71-6.27-12.65-19.79-12.65-84.9,0-169.79,0-254.69.01-2.87,0-5.79-.02-8.59.51-7.3,1.36-11.14,5.96-10.56,13.37.55,6.96,4.79,10.83,11.78,11.43,2.57.22,5.18.1,7.77.1,42.3,0,84.61,0,126.91,0ZM453.8,701.09c42.3,0,84.61,0,126.91,0,14.07,0,20.39-4.06,20.15-12.92-.23-8.63-6.37-12.51-19.91-12.51-84.9,0-169.79-.01-254.69.03-3.43,0-6.99.03-10.25.92-6.4,1.76-10.36,6.84-8.46,12.91,1.37,4.38,6.04,8.12,10.02,11.11,1.87,1.41,5.58.45,8.45.45,42.59.01,85.19.01,127.78.01Z"/>
</svg>