<?xml version="1.0" encoding="UTF-8"?>
<svg id="Calque_1" data-name="Calque 1" xmlns="http://www.w3.org/2000/svg" version="1.1" viewBox="0 0 1200 1200">
  <defs>
    <style>
      .cls-1 {
        fill: #000;
      }

      .cls-1, .cls-2 {
        stroke-width: 0px;
      }

      .cls-2 {
        fill: #fff;
      }
    </style>
  </defs>
  <path class="cls-2" d="M600.29,968c202.39.63,367.77-163.89,368.78-366.87,1-202.56-164.12-368.44-367.38-369.06-202.44-.62-367.86,163.93-368.78,366.86-.92,202.56,164.2,368.45,367.38,369.08Z"/>
  <path class="cls-1" d="M600.29,968c-203.18-.64-368.31-166.53-367.38-369.08.92-202.93,166.34-367.48,368.78-366.86,203.26.62,368.38,166.51,367.38,369.06-1.01,202.99-166.38,367.51-368.78,366.87ZM718.66,438.95c-37.14-20.68-76.14-29.48-117.56-21.01-54.5,11.14-89.58,45.64-109.59,96.41-2.29,5.8-4.91,7.82-11.09,7.57-12.98-.52-25.99-.16-39.15-.16v58.54h36.09v37.5h-35.38v58.93h46.93c35.7,113.43,160.76,131.3,228.58,82.78-8.76-17.25-17.57-34.59-26.52-52.23-24.39,13.71-49.26,21.82-76.55,16.42-27.62-5.47-48.16-20.83-62.1-47.27h91.55v-58.72h-106.15v-37.78h89.17q17.46,0,17.46-17.68c0-13.24,0-26.48,0-40.56h-90.39c9.54-17.79,22.15-30.43,38.97-38.68,34.66-16.99,67.11-7.77,98.93,9.55,9.05-18.1,17.79-35.59,26.8-53.62Z"/>
</svg>