<?xml version="1.0" encoding="UTF-8"?>
<svg id="Calque_1" data-name="Calque 1" xmlns="http://www.w3.org/2000/svg" version="1.1" viewBox="0 0 1200 1200">
  <defs>
    <style>
      .cls-1 {
        fill: #000;
        stroke-width: 0px;
      }
    </style>
  </defs>
  <path class="cls-1" d="M797.7,971.11h-404.5l-2.54-.43c-57.17-9.62-103.55-47.71-134.15-110.21-21.79-44.49-28.02-86.28-28.28-88.03l-.31-4.41.06-335.11c9.76-149.71,135.84-198.83,201.13-203.88l2.37-.1h357.97l1.72.2c143.94,16.19,181.21,141.81,180.82,205.97v332.99l-.15,1.54c-15.02,149.2-119.65,196.96-172.89,201.35l-1.26.11ZM398.5,909.61h396.13c5.09-.72,28.79-4.84,53.08-21.97,35.74-25.2,56.86-66.47,62.81-122.65v-330.05c-.03-13.37-3.8-129.85-124.55-144.49h-353.07c-13.02,1.36-134.51,17.47-143.49,145.52v329.51c2.86,15.93,25.94,128.15,109.1,144.13Z"/>
  <path class="cls-1" d="M599.96,791.8c-104.14,0-188.85-84.73-188.85-188.85s84.71-188.87,188.85-188.87,188.85,84.73,188.85,188.87-84.71,188.85-188.85,188.85ZM599.96,465.57c-75.74,0-137.36,61.63-137.36,137.38s61.62,137.36,137.36,137.36,137.36-61.63,137.36-137.36-61.62-137.38-137.36-137.38Z"/>
  <path class="cls-1" d="M847.28,399.71c0,23.01-18.64,41.67-41.66,41.67s-41.68-18.66-41.68-41.67,18.66-41.66,41.68-41.66,41.66,18.66,41.66,41.66Z"/>
</svg>