<svg width="35" height="35" viewBox="0 0 25 25" fill="none" xmlns="http://www.w3.org/2000/svg">
<path d="M18.593 24.1221H5.52458L5.44302 24.1085C3.59642 23.7979 2.09698 22.5672 1.10885 20.5481C0.405131 19.1103 0.203323 17.7604 0.194958 17.704L0.185547 17.5618L0.187638 6.7352C0.502376 1.89807 4.57619 0.310788 6.68524 0.147668L6.76157 0.144531H18.3274L18.3828 0.150805C23.0328 0.67467 24.2373 4.7328 24.2248 6.80526V17.5638L24.2196 17.614C23.7344 22.4334 20.3538 23.9767 18.6338 24.119L18.593 24.1221ZM5.69607 22.1354H18.4936C18.6589 22.1124 19.4243 21.9785 20.2085 21.4254C21.3629 20.6119 22.0457 19.2776 22.2381 17.4635V6.80003C22.237 6.36818 22.1157 2.60492 18.2145 2.13125H6.80758C6.38619 2.17516 2.4619 2.69589 2.17122 6.83349V17.4791C2.26428 17.9936 3.00982 21.6188 5.69607 22.1354Z" fill="#EFD7CA"/>
<path d="M12.2048 18.3276C8.83995 18.3276 6.10352 15.5912 6.10352 12.2274C6.10352 8.86248 8.83995 6.125 12.2048 6.125C15.5697 6.125 18.3061 8.86248 18.3061 12.2274C18.3061 15.5912 15.5697 18.3276 12.2048 18.3276ZM12.2048 7.78861C9.75803 7.78861 7.76713 9.77951 7.76713 12.2274C7.76713 14.6731 9.75803 16.665 12.2048 16.665C14.6516 16.665 16.6425 14.6731 16.6425 12.2274C16.6425 9.77951 14.6516 7.78861 12.2048 7.78861Z" fill="#EFD7CA"/>
<path d="M20.1945 5.66214C20.1945 6.40559 19.5922 7.00893 18.8487 7.00893C18.1053 7.00893 17.502 6.40559 17.502 5.66214C17.502 4.91869 18.1053 4.31641 18.8487 4.31641C19.5922 4.31641 20.1945 4.91869 20.1945 5.66214Z" fill="#EFD7CA"/>
</svg>
