<?xml version="1.0" encoding="UTF-8"?>
<svg id="Calque_1" data-name="Calque 1" xmlns="http://www.w3.org/2000/svg" version="1.1" viewBox="0 0 1200 1200">
  <defs>
    <style>
      .cls-1 {
        fill: #000;
        stroke-width: 0px;
      }
    </style>
  </defs>
  <path class="cls-1" d="M601.98,230.5c104.51,0,209.02.69,313.52-.41,32.13-.34,55.62,22.44,55.51,55.48-.73,208.98-.73,417.97,0,626.95.12,33.28-23.66,55.59-55.5,55.48-209.01-.78-418.03-.78-627.04,0-31.7.12-55.63-22.16-55.51-55.48.75-208.98.37-417.97.39-626.95,0-36.06,19.06-55.05,55.11-55.06,104.51-.02,209.02,0,313.52,0ZM532.33,648.97c5.1,0,8.59.12,12.06-.02,30.41-1.17,61.33.7,91.14-4.19,86.49-14.16,148.34-103.1,134.2-189.37-14.17-86.42-82.66-144.72-170.5-144.96-49.08-.13-98.17-.03-147.25-.02-18.87,0-19.23.36-19.23,19.54,0,151.78,0,303.57,0,455.35,0,29.45-.08,58.89.05,88.34.05,12.11,2.04,13.97,14.19,14.02,22.79.08,45.58.05,68.37.02,15.51-.02,16.97-1.44,16.97-16.71.02-69.41,0-138.81,0-208.22,0-4.13,0-8.26,0-13.78Z"/>
  <path class="cls-1" d="M511.95,479.29c0-24.54-.06-49.07.02-73.61.04-13.59,2.36-16.06,15.91-16.02,27.69.09,55.43-.58,83.05.95,44.16,2.45,78.08,39.25,80.86,85.86,2.52,42.22-29.75,85.3-71.93,90.32-32.18,3.83-65.03,2.19-97.59,2.41-8.59.06-10.36-6.82-10.34-14.21.06-25.24.02-50.48.02-75.71Z"/>
</svg>