<?xml version="1.0" encoding="UTF-8"?>
<svg id="Calque_1" data-name="Calque 1" xmlns="http://www.w3.org/2000/svg" xmlns:xlink="http://www.w3.org/1999/xlink" version="1.1" viewBox="0 0 1200 1200">
  <defs>
    <style>
      .cls-1 {
        clip-path: url(#clippath);
      }

      .cls-2 {
        fill: none;
      }

      .cls-2, .cls-3 {
        stroke-width: 0px;
      }

      .cls-3 {
        fill: #020202;
      }
    </style>
    <clipPath id="clippath">
      <rect class="cls-2" x="232.66" y="230.42" width="746.34" height="748.95"/>
    </clipPath>
  </defs>
  <g class="cls-1">
    <path class="cls-3" d="M953.43,812.29l-113.84-113.91c-22.7-22.58-60.23-21.88-83.7,1.59l-57.37,57.37c-3.63-1.97-7.38-4.07-11.32-6.3-36.25-20.1-85.8-47.57-138.01-99.79-52.34-52.34-79.88-102.01-99.98-138.27-2.16-3.81-4.2-7.49-6.17-11.05l38.48-38.43,18.95-18.95c23.47-23.52,24.17-61.06,1.53-83.68l-113.91-113.91c-22.58-22.65-60.16-21.95-83.71,1.58l-32.04,32.25.81.87c-10.74,13.74-19.72,29.58-26.39,46.63-6.18,16.28-10.05,31.79-11.76,47.31-15.07,124.66,41.91,238.56,196.45,393.17,213.69,213.63,385.92,197.54,393.36,196.71,16.15-1.91,31.67-5.79,47.44-11.89,16.92-6.61,32.75-15.58,46.43-26.33l.7.64,32.56-31.86c23.4-23.53,24.1-61.06,1.46-83.76h0ZM953.43,812.29"/>
  </g>
</svg>